<?xml version="1.0" standalone="no"?><!DOCTYPE svg PUBLIC "-//W3C//DTD SVG 1.1//EN" "http://www.w3.org/Graphics/SVG/1.1/DTD/svg11.dtd"><svg t="1522229684120" class="icon" style="" viewBox="0 0 1024 1024" version="1.1" xmlns="http://www.w3.org/2000/svg" p-id="21409" xmlns:xlink="http://www.w3.org/1999/xlink" width="200" height="200"><defs><style type="text/css"></style></defs><path d="M78.87872 189.80864l-57.12896 1.04448-5.65248 5.85728-5.85728 5.65248v519.43424l6.90176 6.07232 6.90176 6.27712 66.54976-0.62464 66.75456-0.62464 2.5088 9.84064c3.55328 14.4384 15.07328 36.83328 24.90368 48.34304 26.58304 31.60064 61.52192 46.87872 102.7584 44.78976 34.10944-1.46432 61.52192-14.2336 85.38112-38.92224 12.76928-13.39392 28.672-43.1104 30.976-57.76384 1.04448-7.95648 1.88416-9.4208 4.8128-7.95648 4.39296 2.304 247.15264 2.08896 251.76064 0 2.72384-1.46432 3.55328-0.21504 4.8128 6.90176 0.83968 4.8128 5.23264 16.11776 9.6256 24.90368 36.61824 73.46176 136.02816 89.56928 194.41664 31.80544 15.48288-15.27808 23.64416-28.25216 30.34112-47.7184l4.608-13.18912 46.87872-1.04448c50.85184-1.04448 53.78048-1.88416 59.8528-13.81376 3.34848-6.27712 3.76832-120.96512 0.62464-152.77056-6.90176-69.4784-28.8768-152.56576-57.5488-218.48064-38.2976-88.10496-83.08736-140.63616-132.67968-155.91424-12.97408-4.18816-20.51072-4.18816-349.4912-3.76832-184.7808 0.2048-361.8304 1.04448-393.0112 1.66912z m614.64576 156.95872v115.0976H557.49632v-230.1952h136.02816v115.0976z m116.57216-111.74912c36.83328 12.55424 75.97056 65.29024 108.19584 145.65376 11.29472 28.25216 26.368 73.04192 26.368 78.47936 0 2.304-18.41152 2.72384-102.54336 2.72384H739.56352v-230.1952h30.34112c22.40512-0.01024 32.86016 0.82944 40.192 3.33824zM146.8928 347.1872l-0.62464 113.63328-45.4144 0.62464-45.6192 0.41984V233.75872h92.07808l-0.41984 113.42848z m182.49728 0.62464v114.06336H191.27296V233.76896h138.11712v114.04288z m182.0672 0v114.06336l-68.43392-0.41984-68.63872-0.62464-0.62464-113.63328-0.41984-113.42848h138.11712v114.04288z m-196.096 289.2288c42.27072 19.88608 59.43296 70.94272 37.45792 112.16896-7.53664 14.01856-26.99264 31.60064-40.8064 36.83328-30.976 11.50976-60.89728 5.85728-84.96128-15.69792-33.28-29.92128-35.9936-80.14848-6.07232-112.7936 19.0464-20.93056 37.87776-28.8768 64.8704-27.41248 12.34944 0.62464 19.46624 2.29376 29.51168 6.90176z m500.3776-0.83968c15.48288 7.1168 28.45696 19.67104 37.03808 35.36896 5.85728 11.29472 7.1168 15.69792 7.74144 31.1808 1.04448 21.3504-2.304 33.6896-13.18912 49.18272-20.71552 29.09184-58.80832 40.8064-91.45344 28.25216-35.15392-13.59872-56.70912-55.04-47.7184-92.07808 5.65248-23.8592 27.41248-46.66368 51.89632-54.82496 16.55808-5.45792 39.99744-4.1984 55.68512 2.9184z" p-id="21410"></path><path d="M286.48448 694.58944c-15.48288 13.59872-6.69696 39.34208 13.39392 39.34208 9.4208 0 16.5376-4.8128 20.29568-13.81376 8.58112-20.71552-16.9472-39.96672-33.6896-25.52832zM788.74624 694.58944c-15.48288 13.59872-6.69696 39.34208 13.39392 39.34208 9.4208 0 16.52736-4.8128 20.29568-13.81376 8.58112-20.71552-16.9472-39.96672-33.6896-25.52832z" p-id="21411"></path></svg>